<svg xmlns="http://www.w3.org/2000/svg" viewBox="0 0 256 256" role="img" aria-label="Thesis Monitor icon">
  <defs>
    <linearGradient id="g" x1="0" y1="0" x2="1" y2="1">
      <stop offset="0%" stop-color="#2563eb"/>
      <stop offset="100%" stop-color="#1d4ed8"/>
    </linearGradient>
  </defs>
  <rect x="12" y="12" width="232" height="232" rx="56" fill="#0f172a"/>
  <rect x="44" y="44" width="168" height="168" rx="38" fill="url(#g)"/>
  <circle cx="128" cy="128" r="20" fill="#ffffff"/>
  <path d="M128 86c-22 0-40 18-40 40h12c0-15 13-28 28-28s28 13 28 28h12c0-22-18-40-40-40z" fill="#bfdbfe"/>
  <path d="M128 68c-32 0-58 26-58 58h12c0-25 21-46 46-46s46 21 46 46h12c0-32-26-58-58-58z" fill="#dbeafe"/>
</svg>
